# xmcd
#
# Track frame offsets:
#	150
#	19883
#	39344
#	54283
#	74955
#	94741
#	111918
#	131117
#	150045
#
# Disc length: 2329 seconds
#
# Revision: 0
# Processed by: cddbd v1.4b42PL1 Copyright (c) Steve Scherf et al.
# Submitted via: EZCDDA 4.3.3.2
#
DISCID=73091709
DTITLE=Anssi Kela - Nummela
DYEAR=1900
DGENRE=
TTITLE0=Kaksi sisarta
TTITLE1=Mikan faijan BMW
TTITLE2=Esko Riihelän painajainen
TTITLE3=Puistossa feat. Alexandra
TTITLE4=Kaunotar ja basisti
TTITLE5=Rva Ruusunen
TTITLE6=Harhaa feat. Anna Kuoppamäki
TTITLE7=Kissanpäivät
TTITLE8=Nummela
EXTD=
EXTT0=
EXTT1=
EXTT2=
EXTT3=
EXTT4=
EXTT5=
EXTT6=
EXTT7=
EXTT8=
PLAYORDER=
